<svg width="490" height="256" viewBox="0 0 490 256" fill="none" xmlns="http://www.w3.org/2000/svg">
<g clip-path="url(#clip0_585_25)">
<path d="M314.654 104.786C312.512 114.373 311.172 124.184 309.05 133.802C308.856 134.689 308.928 135.597 308.928 136.484L307.314 134.801L292.228 101.053C290.826 99.4516 282.958 100.706 280.562 100.339L268.876 161.95H281.81C282.004 161.95 282.866 160.961 282.968 160.563L289.932 125.785L306.156 161.44C307.13 162.307 316.766 162.328 317.618 161.226L329.232 100.308H316.298C315.446 101.451 314.968 103.388 314.664 104.776L314.654 104.786Z" fill="#214E4B"/>
<path d="M248.33 100.308C246.086 99.8898 236.056 99.9816 233.59 100.277C231.61 100.512 230.138 104.571 229.112 106.478C219.458 124.428 210.93 143.021 201.122 160.899C200.676 161.216 201.6 161.94 201.66 161.94H214.848L221.132 149.517C221.782 148.661 239.844 149.354 242.524 149.426C243.732 150.293 243.032 160.349 244.778 161.94H257.204L249.528 101.134C249.356 100.471 248.91 100.41 248.33 100.298V100.308ZM227.274 138.003L237.934 115.086L238.92 116.381C239.712 123.572 241.052 130.762 241.478 138.003H227.274Z" fill="#214E4B"/>
<path d="M208.28 113.077C209.426 112.945 210.036 112.904 210.026 111.527C210.128 111.303 209.934 110.793 210.026 110.507C210.99 107.305 211.71 103.664 212.056 100.318H164.127C163.153 103.031 161.092 109.253 161.335 112.037C161.345 112.21 161.325 112.373 161.335 112.547L178.076 113.057L169.041 160.808C168.858 161.216 169.518 161.96 169.711 161.96H182.391L192.229 113.353C192.787 112.557 205.996 113.342 208.29 113.087L208.28 113.077Z" fill="#214E4B"/>
<path d="M341.904 100.817C341.66 104.081 339.59 108.885 339.874 112.026C339.894 112.21 339.822 112.434 339.874 112.536C340.208 113.24 340.482 113.015 341.112 113.066C345.508 113.464 351.052 113.046 355.6 113.046H356.614L347.508 160.726C347.396 161.154 348.026 161.949 348.238 161.949H361.172L370.746 113.342C371.468 112.281 385.478 113.882 387.954 112.587C387.996 112.577 388.026 112.556 388.046 112.536C388.106 112.485 388.046 111.322 388.046 111.006C389.478 108.079 389.812 104.091 390.076 100.817H341.894H341.904Z" fill="#214E4B"/>
<path d="M403.274 101.328L391.102 161.939H432.188C432.594 158.349 434.31 154.351 434.218 150.731C434.218 150.364 434.442 149.65 433.914 149.701H407.842C407.396 148.406 409.488 137.238 410.37 136.718C412.798 135.28 431.406 137.574 433.234 136.248C433.356 133.393 435.69 127.804 435.65 125.407C435.65 124.918 435.274 124.244 434.97 124.244H412.402L414.502 113.107L441.234 112.444L443.346 100.308L403.274 100.818V101.328Z" fill="#214E4B"/>
<path d="M489 149.722L463.132 149.212L471.762 101.838C472.046 100.298 470.99 100.849 470.006 100.818C468.442 100.767 459.062 100.523 458.574 100.818C458.524 100.849 458.076 101.777 458.066 101.838C457.966 102.256 458.138 102.889 458.066 103.368C453.69 121.298 451.224 140.217 446.91 158.381C446.91 158.891 446.91 159.401 446.91 159.911C446.91 160.594 446.91 161.277 446.91 161.95L486.504 161.695C486.788 161.512 486.888 161.236 486.99 160.931C487.032 160.788 486.96 160.594 486.99 160.421C488.188 157.402 488.696 153.506 489.02 150.232C489.042 150.069 489.01 149.895 489.02 149.722H489Z" fill="#214E4B"/>
<path d="M92.146 103.744C76.806 123.784 40.0648 157.298 34.0648 180.143C31.4862 189.975 32.9074 194.891 37.1816 203.438C37.405 203.886 38.0852 204.896 37.08 204.814C37.1918 203.846 36.603 203.886 36.0952 203.52C29.9938 199.195 23.7298 194.738 18.4811 189.363C-28.0266 141.673 29.7502 92.9532 58.8668 56.329C70.7958 41.3062 88.5318 18.7258 73.5876 0.0414498C74.3492 -0.131931 74.7856 0.204632 75.3948 0.510598C82.8974 4.24338 94.471 13.6977 100.227 19.8885C127.08 48.7716 112.633 76.9716 92.146 103.723V103.744Z" fill="#214E4B"/>
<path d="M122.593 161.825C110.005 176.175 77.893 200.958 75.233 219.45C74.2482 226.292 76.7762 232.096 79.9336 237.91C75.304 235.134 70.431 232.146 66.2482 228.74C12.228 184.732 89.9842 133.585 112.553 97.501C117.345 89.8416 121.893 80.5608 119.243 71.3614C135.04 86.8534 147.03 107.833 141.121 130.78C138.319 141.683 129.944 153.452 122.593 161.836V161.825Z" fill="black"/>
<path d="M121.03 230C120.487 230 120.043 229.827 119.698 229.482C119.353 229.137 119.18 228.693 119.18 228.15V180.05C119.18 179.507 119.353 179.063 119.698 178.718C120.043 178.373 120.487 178.2 121.03 178.2H155.588C156.131 178.2 156.575 178.373 156.92 178.718C157.265 179.063 157.438 179.507 157.438 180.05V187.006C157.438 187.549 157.265 187.993 156.92 188.338C156.575 188.683 156.131 188.856 155.588 188.856H131.982V198.846H153.96C154.503 198.846 154.947 199.043 155.292 199.438C155.637 199.783 155.81 200.227 155.81 200.77V207.208C155.81 207.701 155.637 208.145 155.292 208.54C154.947 208.885 154.503 209.058 153.96 209.058H131.982V219.344H156.18C156.723 219.344 157.167 219.517 157.512 219.862C157.857 220.207 158.03 220.651 158.03 221.194V228.15C158.03 228.693 157.857 229.137 157.512 229.482C157.167 229.827 156.723 230 156.18 230H121.03ZM169.032 230C168.489 230 168.045 229.827 167.7 229.482C167.354 229.137 167.182 228.693 167.182 228.15V180.05C167.182 179.507 167.354 179.063 167.7 178.718C168.045 178.373 168.489 178.2 169.032 178.2H176.876C177.714 178.2 178.306 178.397 178.652 178.792C179.046 179.137 179.293 179.409 179.392 179.606L197.448 208.096V180.05C197.448 179.507 197.62 179.063 197.966 178.718C198.311 178.373 198.755 178.2 199.298 178.2H208.178C208.72 178.2 209.164 178.373 209.51 178.718C209.855 179.063 210.028 179.507 210.028 180.05V228.15C210.028 228.643 209.855 229.087 209.51 229.482C209.164 229.827 208.72 230 208.178 230H200.26C199.47 230 198.878 229.803 198.484 229.408C198.138 229.013 197.916 228.742 197.818 228.594L179.762 201.214V228.15C179.762 228.693 179.589 229.137 179.244 229.482C178.898 229.827 178.454 230 177.912 230H169.032ZM222.959 230C222.417 230 221.973 229.827 221.627 229.482C221.282 229.137 221.109 228.693 221.109 228.15V180.05C221.109 179.507 221.282 179.063 221.627 178.718C221.973 178.373 222.417 178.2 222.959 178.2H257.517C258.06 178.2 258.504 178.373 258.849 178.718C259.195 179.063 259.367 179.507 259.367 180.05V187.006C259.367 187.549 259.195 187.993 258.849 188.338C258.504 188.683 258.06 188.856 257.517 188.856H233.911V198.846H255.889C256.432 198.846 256.876 199.043 257.221 199.438C257.567 199.783 257.739 200.227 257.739 200.77V207.208C257.739 207.701 257.567 208.145 257.221 208.54C256.876 208.885 256.432 209.058 255.889 209.058H233.911V219.344H258.109C258.652 219.344 259.096 219.517 259.441 219.862C259.787 220.207 259.959 220.651 259.959 221.194V228.15C259.959 228.693 259.787 229.137 259.441 229.482C259.096 229.827 258.652 230 258.109 230H222.959ZM270.961 230C270.418 230 269.974 229.827 269.629 229.482C269.284 229.137 269.111 228.693 269.111 228.15V180.05C269.111 179.507 269.284 179.063 269.629 178.718C269.974 178.373 270.418 178.2 270.961 178.2H291.089C297.453 178.2 302.46 179.68 306.111 182.64C309.811 185.551 311.661 189.695 311.661 195.072C311.661 198.575 310.798 201.535 309.071 203.952C307.394 206.369 305.174 208.195 302.411 209.428L312.623 227.632C312.771 227.928 312.845 228.199 312.845 228.446C312.845 228.841 312.672 229.211 312.327 229.556C312.031 229.852 311.661 230 311.217 230H301.449C300.512 230 299.821 229.778 299.377 229.334C298.933 228.841 298.612 228.397 298.415 228.002L289.979 211.722H282.357V228.15C282.357 228.693 282.184 229.137 281.839 229.482C281.494 229.827 281.05 230 280.507 230H270.961ZM282.357 201.288H290.941C293.26 201.288 294.986 200.721 296.121 199.586C297.305 198.451 297.897 196.897 297.897 194.924C297.897 193 297.33 191.446 296.195 190.262C295.11 189.078 293.358 188.486 290.941 188.486H282.357V201.288ZM342.184 230.74C337.498 230.74 333.452 229.975 330.048 228.446C326.694 226.867 324.079 224.598 322.204 221.638C320.379 218.629 319.368 214.978 319.17 210.686C319.121 208.565 319.096 206.32 319.096 203.952C319.096 201.535 319.121 199.241 319.17 197.07C319.368 192.877 320.404 189.325 322.278 186.414C324.153 183.503 326.792 181.283 330.196 179.754C333.6 178.225 337.596 177.46 342.184 177.46C345.884 177.46 349.165 177.929 352.026 178.866C354.888 179.754 357.28 180.963 359.204 182.492C361.178 184.021 362.658 185.699 363.644 187.524C364.68 189.349 365.223 191.15 365.272 192.926C365.322 193.37 365.174 193.74 364.828 194.036C364.532 194.332 364.162 194.48 363.718 194.48H352.914C352.372 194.48 351.952 194.406 351.656 194.258C351.41 194.061 351.188 193.789 350.99 193.444C350.645 192.704 350.127 191.939 349.436 191.15C348.795 190.311 347.882 189.596 346.698 189.004C345.564 188.412 344.059 188.116 342.184 188.116C339.372 188.116 337.152 188.856 335.524 190.336C333.946 191.816 333.082 194.184 332.934 197.44C332.786 201.683 332.786 205.975 332.934 210.316C333.082 213.769 333.995 216.261 335.672 217.79C337.35 219.319 339.57 220.084 342.332 220.084C344.207 220.084 345.86 219.763 347.29 219.122C348.77 218.481 349.93 217.494 350.768 216.162C351.607 214.781 352.026 213.029 352.026 210.908V209.502H345.07C344.528 209.502 344.059 209.329 343.664 208.984C343.319 208.589 343.146 208.121 343.146 207.578V202.102C343.146 201.559 343.319 201.115 343.664 200.77C344.059 200.375 344.528 200.178 345.07 200.178H363.718C364.261 200.178 364.705 200.375 365.05 200.77C365.396 201.115 365.568 201.559 365.568 202.102V210.538C365.568 214.781 364.606 218.407 362.682 221.416C360.758 224.425 358.02 226.744 354.468 228.372C350.966 229.951 346.871 230.74 342.184 230.74ZM376.648 230C376.105 230 375.661 229.827 375.316 229.482C374.971 229.137 374.798 228.693 374.798 228.15V180.05C374.798 179.507 374.971 179.063 375.316 178.718C375.661 178.373 376.105 178.2 376.648 178.2H386.564C387.107 178.2 387.551 178.373 387.896 178.718C388.241 179.063 388.414 179.507 388.414 180.05V228.15C388.414 228.693 388.241 229.137 387.896 229.482C387.551 229.827 387.107 230 386.564 230H376.648ZM401.38 230C400.837 230 400.393 229.827 400.048 229.482C399.703 229.137 399.53 228.693 399.53 228.15V180.05C399.53 179.507 399.703 179.063 400.048 178.718C400.393 178.373 400.837 178.2 401.38 178.2H435.938C436.481 178.2 436.925 178.373 437.27 178.718C437.615 179.063 437.788 179.507 437.788 180.05V187.006C437.788 187.549 437.615 187.993 437.27 188.338C436.925 188.683 436.481 188.856 435.938 188.856H412.332V198.846H434.31C434.853 198.846 435.297 199.043 435.642 199.438C435.987 199.783 436.16 200.227 436.16 200.77V207.208C436.16 207.701 435.987 208.145 435.642 208.54C435.297 208.885 434.853 209.058 434.31 209.058H412.332V219.344H436.53C437.073 219.344 437.517 219.517 437.862 219.862C438.207 220.207 438.38 220.651 438.38 221.194V228.15C438.38 228.693 438.207 229.137 437.862 229.482C437.517 229.827 437.073 230 436.53 230H401.38ZM466.846 230.74C461.913 230.74 457.818 230.049 454.562 228.668C451.306 227.237 448.839 225.387 447.162 223.118C445.485 220.849 444.597 218.431 444.498 215.866C444.498 215.471 444.646 215.126 444.942 214.83C445.287 214.485 445.682 214.312 446.126 214.312H455.45C456.141 214.312 456.659 214.435 457.004 214.682C457.399 214.929 457.744 215.249 458.04 215.644C458.435 216.384 458.977 217.099 459.668 217.79C460.408 218.481 461.345 219.048 462.48 219.492C463.664 219.887 465.119 220.084 466.846 220.084C469.707 220.084 471.853 219.64 473.284 218.752C474.764 217.864 475.504 216.655 475.504 215.126C475.504 214.041 475.109 213.153 474.32 212.462C473.531 211.722 472.248 211.081 470.472 210.538C468.745 209.946 466.427 209.354 463.516 208.762C459.767 207.973 456.56 206.961 453.896 205.728C451.281 204.445 449.283 202.793 447.902 200.77C446.521 198.698 445.83 196.133 445.83 193.074C445.83 190.065 446.669 187.376 448.346 185.008C450.073 182.64 452.465 180.79 455.524 179.458C458.583 178.126 462.209 177.46 466.402 177.46C469.806 177.46 472.791 177.904 475.356 178.792C477.971 179.68 480.166 180.864 481.942 182.344C483.718 183.824 485.05 185.403 485.938 187.08C486.875 188.708 487.369 190.311 487.418 191.89C487.418 192.285 487.27 192.655 486.974 193C486.678 193.296 486.308 193.444 485.864 193.444H476.096C475.553 193.444 475.085 193.345 474.69 193.148C474.295 192.951 473.95 192.63 473.654 192.186C473.358 191.101 472.569 190.163 471.286 189.374C470.053 188.535 468.425 188.116 466.402 188.116C464.231 188.116 462.529 188.511 461.296 189.3C460.112 190.04 459.52 191.199 459.52 192.778C459.52 193.765 459.841 194.628 460.482 195.368C461.173 196.108 462.283 196.749 463.812 197.292C465.391 197.835 467.537 198.402 470.25 198.994C474.739 199.833 478.365 200.893 481.128 202.176C483.891 203.409 485.913 205.037 487.196 207.06C488.479 209.033 489.12 211.525 489.12 214.534C489.12 217.889 488.158 220.799 486.234 223.266C484.359 225.683 481.745 227.533 478.39 228.816C475.035 230.099 471.187 230.74 466.846 230.74Z" fill="black"/>
</g>
<defs>
<clipPath id="clip0_585_25">
<rect width="490" height="256" fill="white"/>
</clipPath>
</defs>
</svg>
